<mxfile host="app.diagrams.net" modified="2020-12-15T04:46:57.915Z" agent="5.0 (Windows NT 10.0; Win64; x64) AppleWebKit/537.36 (KHTML, like Gecko) Chrome/87.0.4280.88 Safari/537.36" etag="vwIReFW8rWksK4V0Rcok" version="14.0.1" type="github">
  <diagram id="A6fvi8bu3X2XwePiwcYn" name="Page-1">
    <mxGraphModel dx="2889" dy="2266" grid="1" gridSize="10" guides="1" tooltips="1" connect="1" arrows="1" fold="1" page="1" pageScale="1" pageWidth="827" pageHeight="1169" math="0" shadow="0">
      <root>
        <mxCell id="0" />
        <mxCell id="1" parent="0" />
        <mxCell id="rMF9UJl8UGHNbneHGESr-83" style="edgeStyle=orthogonalEdgeStyle;rounded=0;orthogonalLoop=1;jettySize=auto;html=1;entryX=0.5;entryY=0;entryDx=0;entryDy=0;" edge="1" parent="1" source="rMF9UJl8UGHNbneHGESr-81" target="rMF9UJl8UGHNbneHGESr-82">
          <mxGeometry relative="1" as="geometry" />
        </mxCell>
        <mxCell id="rMF9UJl8UGHNbneHGESr-81" value="" style="ellipse;fillColor=#000000;strokeColor=none;" vertex="1" parent="1">
          <mxGeometry x="720" y="-300" width="30" height="30" as="geometry" />
        </mxCell>
        <mxCell id="rMF9UJl8UGHNbneHGESr-84" style="edgeStyle=orthogonalEdgeStyle;rounded=0;orthogonalLoop=1;jettySize=auto;html=1;entryX=0.5;entryY=0;entryDx=0;entryDy=0;" edge="1" parent="1" source="rMF9UJl8UGHNbneHGESr-82" target="rMF9UJl8UGHNbneHGESr-88">
          <mxGeometry relative="1" as="geometry">
            <mxPoint x="440" y="-205" as="targetPoint" />
          </mxGeometry>
        </mxCell>
        <mxCell id="rMF9UJl8UGHNbneHGESr-85" style="edgeStyle=orthogonalEdgeStyle;rounded=0;orthogonalLoop=1;jettySize=auto;html=1;entryX=0.5;entryY=0;entryDx=0;entryDy=0;" edge="1" parent="1" source="rMF9UJl8UGHNbneHGESr-82" target="rMF9UJl8UGHNbneHGESr-267">
          <mxGeometry relative="1" as="geometry">
            <mxPoint x="1120" y="-205" as="targetPoint" />
          </mxGeometry>
        </mxCell>
        <mxCell id="rMF9UJl8UGHNbneHGESr-82" value="" style="rhombus;" vertex="1" parent="1">
          <mxGeometry x="720" y="-220" width="30" height="30" as="geometry" />
        </mxCell>
        <mxCell id="rMF9UJl8UGHNbneHGESr-86" value="[손님]" style="text;html=1;strokeColor=none;fillColor=none;align=center;verticalAlign=middle;whiteSpace=wrap;rounded=0;" vertex="1" parent="1">
          <mxGeometry x="610" y="-230" width="40" height="20" as="geometry" />
        </mxCell>
        <mxCell id="rMF9UJl8UGHNbneHGESr-87" value="[관리자]" style="text;html=1;strokeColor=none;fillColor=none;align=center;verticalAlign=middle;whiteSpace=wrap;rounded=0;" vertex="1" parent="1">
          <mxGeometry x="830" y="-230" width="80" height="20" as="geometry" />
        </mxCell>
        <mxCell id="rMF9UJl8UGHNbneHGESr-89" style="edgeStyle=orthogonalEdgeStyle;rounded=0;orthogonalLoop=1;jettySize=auto;html=1;exitX=0;exitY=0.5;exitDx=0;exitDy=0;entryX=0.484;entryY=-0.15;entryDx=0;entryDy=0;entryPerimeter=0;" edge="1" parent="1" source="rMF9UJl8UGHNbneHGESr-88" target="rMF9UJl8UGHNbneHGESr-120">
          <mxGeometry relative="1" as="geometry">
            <mxPoint x="-80" y="-105" as="targetPoint" />
          </mxGeometry>
        </mxCell>
        <mxCell id="rMF9UJl8UGHNbneHGESr-173" style="edgeStyle=orthogonalEdgeStyle;rounded=0;orthogonalLoop=1;jettySize=auto;html=1;entryX=0.5;entryY=0;entryDx=0;entryDy=0;" edge="1" parent="1" source="rMF9UJl8UGHNbneHGESr-88" target="rMF9UJl8UGHNbneHGESr-171">
          <mxGeometry relative="1" as="geometry" />
        </mxCell>
        <mxCell id="rMF9UJl8UGHNbneHGESr-174" style="edgeStyle=orthogonalEdgeStyle;rounded=0;orthogonalLoop=1;jettySize=auto;html=1;entryX=0.5;entryY=0;entryDx=0;entryDy=0;" edge="1" parent="1" source="rMF9UJl8UGHNbneHGESr-88" target="rMF9UJl8UGHNbneHGESr-172">
          <mxGeometry relative="1" as="geometry" />
        </mxCell>
        <mxCell id="rMF9UJl8UGHNbneHGESr-88" value="" style="rhombus;" vertex="1" parent="1">
          <mxGeometry x="350" y="-120" width="30" height="30" as="geometry" />
        </mxCell>
        <mxCell id="rMF9UJl8UGHNbneHGESr-116" value="" style="edgeStyle=orthogonalEdgeStyle;rounded=0;orthogonalLoop=1;jettySize=auto;html=1;entryX=0.5;entryY=0;entryDx=0;entryDy=0;" edge="1" parent="1" source="rMF9UJl8UGHNbneHGESr-120" target="rMF9UJl8UGHNbneHGESr-131">
          <mxGeometry relative="1" as="geometry">
            <mxPoint x="-50" y="200" as="targetPoint" />
            <Array as="points">
              <mxPoint y="140" />
              <mxPoint x="20" y="140" />
            </Array>
          </mxGeometry>
        </mxCell>
        <mxCell id="rMF9UJl8UGHNbneHGESr-117" style="edgeStyle=orthogonalEdgeStyle;rounded=0;orthogonalLoop=1;jettySize=auto;html=1;entryX=0.08;entryY=0.504;entryDx=0;entryDy=0;entryPerimeter=0;" edge="1" parent="1" source="rMF9UJl8UGHNbneHGESr-120" target="rMF9UJl8UGHNbneHGESr-123">
          <mxGeometry relative="1" as="geometry">
            <mxPoint x="-420" y="140" as="targetPoint" />
            <Array as="points">
              <mxPoint x="-340" y="115" />
              <mxPoint x="-420" y="115" />
              <mxPoint x="-420" y="151" />
            </Array>
          </mxGeometry>
        </mxCell>
        <mxCell id="rMF9UJl8UGHNbneHGESr-118" value="" style="edgeStyle=orthogonalEdgeStyle;rounded=0;orthogonalLoop=1;jettySize=auto;html=1;entryX=0.586;entryY=-0.1;entryDx=0;entryDy=0;entryPerimeter=0;" edge="1" parent="1" source="rMF9UJl8UGHNbneHGESr-120" target="rMF9UJl8UGHNbneHGESr-129">
          <mxGeometry relative="1" as="geometry">
            <mxPoint x="-130" y="220" as="targetPoint" />
            <Array as="points">
              <mxPoint x="-128" y="120" />
              <mxPoint x="-128" y="120" />
            </Array>
          </mxGeometry>
        </mxCell>
        <mxCell id="rMF9UJl8UGHNbneHGESr-119" value="" style="edgeStyle=orthogonalEdgeStyle;rounded=0;orthogonalLoop=1;jettySize=auto;html=1;entryX=0.421;entryY=-0.05;entryDx=0;entryDy=0;entryPerimeter=0;" edge="1" parent="1" source="rMF9UJl8UGHNbneHGESr-120" target="rMF9UJl8UGHNbneHGESr-133">
          <mxGeometry relative="1" as="geometry">
            <mxPoint x="-170" y="170" as="targetPoint" />
            <Array as="points">
              <mxPoint x="140" y="170" />
              <mxPoint x="159" y="170" />
            </Array>
          </mxGeometry>
        </mxCell>
        <mxCell id="rMF9UJl8UGHNbneHGESr-120" value="" style="html=1;points=[];perimeter=orthogonalPerimeter;fillColor=#000000;strokeColor=none;" vertex="1" parent="1">
          <mxGeometry x="-510" y="70" width="740" height="20" as="geometry" />
        </mxCell>
        <mxCell id="rMF9UJl8UGHNbneHGESr-121" value="" style="edgeStyle=orthogonalEdgeStyle;rounded=0;orthogonalLoop=1;jettySize=auto;html=1;entryX=0.564;entryY=-0.025;entryDx=0;entryDy=0;entryPerimeter=0;" edge="1" parent="1" source="rMF9UJl8UGHNbneHGESr-123" target="rMF9UJl8UGHNbneHGESr-125">
          <mxGeometry relative="1" as="geometry">
            <mxPoint x="-460" y="260" as="targetPoint" />
            <Array as="points">
              <mxPoint x="-461" y="170" />
              <mxPoint x="-461" y="170" />
            </Array>
          </mxGeometry>
        </mxCell>
        <mxCell id="rMF9UJl8UGHNbneHGESr-122" value="" style="edgeStyle=orthogonalEdgeStyle;rounded=0;orthogonalLoop=1;jettySize=auto;html=1;entryX=0.5;entryY=0;entryDx=0;entryDy=0;" edge="1" parent="1" source="rMF9UJl8UGHNbneHGESr-123" target="rMF9UJl8UGHNbneHGESr-127">
          <mxGeometry relative="1" as="geometry">
            <mxPoint x="-360" y="243" as="targetPoint" />
            <Array as="points">
              <mxPoint x="-360" y="243" />
              <mxPoint x="-300" y="243" />
            </Array>
          </mxGeometry>
        </mxCell>
        <mxCell id="rMF9UJl8UGHNbneHGESr-123" value="" style="html=1;points=[];perimeter=orthogonalPerimeter;fillColor=#000000;strokeColor=none;direction=south;" vertex="1" parent="1">
          <mxGeometry x="-510" y="150" width="187.5" height="12.5" as="geometry" />
        </mxCell>
        <mxCell id="rMF9UJl8UGHNbneHGESr-124" style="edgeStyle=orthogonalEdgeStyle;rounded=0;orthogonalLoop=1;jettySize=auto;html=1;exitX=0.5;exitY=1;exitDx=0;exitDy=0;entryX=-0.2;entryY=0.681;entryDx=0;entryDy=0;entryPerimeter=0;" edge="1" parent="1" source="rMF9UJl8UGHNbneHGESr-125" target="rMF9UJl8UGHNbneHGESr-135">
          <mxGeometry relative="1" as="geometry" />
        </mxCell>
        <mxCell id="rMF9UJl8UGHNbneHGESr-125" value="빵 길이 선택" style="html=1;align=center;verticalAlign=top;rounded=1;absoluteArcSize=1;arcSize=10;dashed=0;" vertex="1" parent="1">
          <mxGeometry x="-540" y="280" width="140" height="40" as="geometry" />
        </mxCell>
        <mxCell id="rMF9UJl8UGHNbneHGESr-126" value="" style="edgeStyle=orthogonalEdgeStyle;rounded=0;orthogonalLoop=1;jettySize=auto;html=1;" edge="1" parent="1" source="rMF9UJl8UGHNbneHGESr-127" target="rMF9UJl8UGHNbneHGESr-135">
          <mxGeometry relative="1" as="geometry" />
        </mxCell>
        <mxCell id="rMF9UJl8UGHNbneHGESr-127" value="빵 선택" style="html=1;align=center;verticalAlign=top;rounded=1;absoluteArcSize=1;arcSize=10;dashed=0;" vertex="1" parent="1">
          <mxGeometry x="-370" y="280" width="140" height="40" as="geometry" />
        </mxCell>
        <mxCell id="rMF9UJl8UGHNbneHGESr-128" value="" style="edgeStyle=orthogonalEdgeStyle;rounded=0;orthogonalLoop=1;jettySize=auto;html=1;" edge="1" parent="1" source="rMF9UJl8UGHNbneHGESr-129" target="rMF9UJl8UGHNbneHGESr-137">
          <mxGeometry relative="1" as="geometry">
            <Array as="points">
              <mxPoint x="-140" y="315" />
              <mxPoint x="-70" y="315" />
            </Array>
          </mxGeometry>
        </mxCell>
        <mxCell id="rMF9UJl8UGHNbneHGESr-129" value="치즈 선택" style="html=1;align=center;verticalAlign=top;rounded=1;absoluteArcSize=1;arcSize=10;dashed=0;" vertex="1" parent="1">
          <mxGeometry x="-210" y="230" width="140" height="40" as="geometry" />
        </mxCell>
        <mxCell id="rMF9UJl8UGHNbneHGESr-130" value="" style="edgeStyle=orthogonalEdgeStyle;rounded=0;orthogonalLoop=1;jettySize=auto;html=1;" edge="1" parent="1" source="rMF9UJl8UGHNbneHGESr-131" target="rMF9UJl8UGHNbneHGESr-146">
          <mxGeometry relative="1" as="geometry" />
        </mxCell>
        <mxCell id="rMF9UJl8UGHNbneHGESr-131" value="소스 선택" style="html=1;align=center;verticalAlign=top;rounded=1;absoluteArcSize=1;arcSize=10;dashed=0;" vertex="1" parent="1">
          <mxGeometry x="-50" y="162.5" width="140" height="40" as="geometry" />
        </mxCell>
        <mxCell id="rMF9UJl8UGHNbneHGESr-132" value="" style="edgeStyle=orthogonalEdgeStyle;rounded=0;orthogonalLoop=1;jettySize=auto;html=1;" edge="1" parent="1" source="rMF9UJl8UGHNbneHGESr-133" target="rMF9UJl8UGHNbneHGESr-137">
          <mxGeometry relative="1" as="geometry">
            <Array as="points">
              <mxPoint x="170" y="315" />
              <mxPoint x="110" y="315" />
            </Array>
          </mxGeometry>
        </mxCell>
        <mxCell id="rMF9UJl8UGHNbneHGESr-133" value="토핑 선택" style="html=1;align=center;verticalAlign=top;rounded=1;absoluteArcSize=1;arcSize=10;dashed=0;" vertex="1" parent="1">
          <mxGeometry x="100" y="230" width="140" height="40" as="geometry" />
        </mxCell>
        <mxCell id="rMF9UJl8UGHNbneHGESr-135" value="" style="html=1;points=[];perimeter=orthogonalPerimeter;fillColor=#000000;strokeColor=none;direction=south;" vertex="1" parent="1">
          <mxGeometry x="-540" y="360" width="340" height="10" as="geometry" />
        </mxCell>
        <mxCell id="rMF9UJl8UGHNbneHGESr-136" value="" style="edgeStyle=orthogonalEdgeStyle;rounded=0;orthogonalLoop=1;jettySize=auto;html=1;entryX=1;entryY=0.5;entryDx=0;entryDy=0;" edge="1" parent="1" source="rMF9UJl8UGHNbneHGESr-137" target="rMF9UJl8UGHNbneHGESr-142">
          <mxGeometry relative="1" as="geometry">
            <mxPoint x="10" y="452.5" as="targetPoint" />
            <Array as="points">
              <mxPoint x="-210" y="435" />
            </Array>
          </mxGeometry>
        </mxCell>
        <mxCell id="rMF9UJl8UGHNbneHGESr-137" value="" style="html=1;points=[];perimeter=orthogonalPerimeter;fillColor=#000000;strokeColor=none;direction=south;" vertex="1" parent="1">
          <mxGeometry x="-210" y="360" width="440" height="10" as="geometry" />
        </mxCell>
        <mxCell id="rMF9UJl8UGHNbneHGESr-140" style="edgeStyle=orthogonalEdgeStyle;rounded=0;orthogonalLoop=1;jettySize=auto;html=1;" edge="1" parent="1" source="rMF9UJl8UGHNbneHGESr-142">
          <mxGeometry relative="1" as="geometry">
            <mxPoint x="-160" as="targetPoint" />
            <Array as="points">
              <mxPoint x="-590" y="435" />
              <mxPoint x="-590" />
            </Array>
          </mxGeometry>
        </mxCell>
        <mxCell id="rMF9UJl8UGHNbneHGESr-330" style="edgeStyle=orthogonalEdgeStyle;rounded=0;orthogonalLoop=1;jettySize=auto;html=1;" edge="1" parent="1" source="rMF9UJl8UGHNbneHGESr-142">
          <mxGeometry relative="1" as="geometry">
            <mxPoint x="-205" y="580" as="targetPoint" />
          </mxGeometry>
        </mxCell>
        <mxCell id="rMF9UJl8UGHNbneHGESr-142" value="" style="rhombus;" vertex="1" parent="1">
          <mxGeometry x="-220" y="420" width="30" height="30" as="geometry" />
        </mxCell>
        <mxCell id="rMF9UJl8UGHNbneHGESr-143" value="&lt;b&gt;[ 모두 선택 되었을 때 ]&lt;/b&gt;" style="text;html=1;strokeColor=none;fillColor=none;align=center;verticalAlign=middle;whiteSpace=wrap;rounded=0;" vertex="1" parent="1">
          <mxGeometry x="-270" y="475" width="130" height="20" as="geometry" />
        </mxCell>
        <mxCell id="rMF9UJl8UGHNbneHGESr-144" value="" style="edgeStyle=orthogonalEdgeStyle;rounded=0;orthogonalLoop=1;jettySize=auto;html=1;" edge="1" parent="1" source="rMF9UJl8UGHNbneHGESr-146">
          <mxGeometry relative="1" as="geometry">
            <mxPoint y="120" as="targetPoint" />
            <Array as="points">
              <mxPoint x="-60" y="255" />
              <mxPoint x="-60" y="120" />
            </Array>
          </mxGeometry>
        </mxCell>
        <mxCell id="rMF9UJl8UGHNbneHGESr-145" value="" style="edgeStyle=orthogonalEdgeStyle;rounded=0;orthogonalLoop=1;jettySize=auto;html=1;" edge="1" parent="1" source="rMF9UJl8UGHNbneHGESr-146">
          <mxGeometry relative="1" as="geometry">
            <Array as="points">
              <mxPoint x="15" y="362" />
            </Array>
            <mxPoint x="15" y="362" as="targetPoint" />
          </mxGeometry>
        </mxCell>
        <mxCell id="rMF9UJl8UGHNbneHGESr-146" value="" style="rhombus;" vertex="1" parent="1">
          <mxGeometry y="240" width="30" height="30" as="geometry" />
        </mxCell>
        <mxCell id="rMF9UJl8UGHNbneHGESr-147" value="&lt;b&gt;[ 3개 초과 선택 됨]&lt;/b&gt;" style="text;html=1;strokeColor=none;fillColor=none;align=center;verticalAlign=middle;whiteSpace=wrap;rounded=0;" vertex="1" parent="1">
          <mxGeometry x="-60" y="260" width="60" height="20" as="geometry" />
        </mxCell>
        <mxCell id="rMF9UJl8UGHNbneHGESr-148" value="&lt;b&gt;[ 3개 이하 ]&lt;/b&gt;" style="text;html=1;strokeColor=none;fillColor=none;align=center;verticalAlign=middle;whiteSpace=wrap;rounded=0;" vertex="1" parent="1">
          <mxGeometry x="-20" y="300" width="70" height="20" as="geometry" />
        </mxCell>
        <mxCell id="rMF9UJl8UGHNbneHGESr-149" value="&lt;b&gt;[ 하나라도 선택이 안되었을 때 ]&lt;/b&gt;" style="text;html=1;strokeColor=none;fillColor=none;align=center;verticalAlign=middle;whiteSpace=wrap;rounded=0;" vertex="1" parent="1">
          <mxGeometry x="-680" y="220" width="180" height="20" as="geometry" />
        </mxCell>
        <mxCell id="rMF9UJl8UGHNbneHGESr-181" style="edgeStyle=orthogonalEdgeStyle;rounded=0;orthogonalLoop=1;jettySize=auto;html=1;entryX=0;entryY=0.5;entryDx=0;entryDy=0;" edge="1" parent="1" source="rMF9UJl8UGHNbneHGESr-169" target="rMF9UJl8UGHNbneHGESr-180">
          <mxGeometry relative="1" as="geometry">
            <Array as="points">
              <mxPoint x="-210" y="735" />
            </Array>
          </mxGeometry>
        </mxCell>
        <mxCell id="rMF9UJl8UGHNbneHGESr-169" value="샌드위치 구성 완료" style="html=1;align=center;verticalAlign=top;rounded=1;absoluteArcSize=1;arcSize=10;dashed=0;" vertex="1" parent="1">
          <mxGeometry x="-280" y="590" width="140" height="40" as="geometry" />
        </mxCell>
        <mxCell id="rMF9UJl8UGHNbneHGESr-170" value="[샌드위치 주문]" style="text;html=1;strokeColor=none;fillColor=none;align=center;verticalAlign=middle;whiteSpace=wrap;rounded=0;" vertex="1" parent="1">
          <mxGeometry x="170" y="-130" width="90" height="20" as="geometry" />
        </mxCell>
        <mxCell id="rMF9UJl8UGHNbneHGESr-182" style="edgeStyle=orthogonalEdgeStyle;rounded=0;orthogonalLoop=1;jettySize=auto;html=1;entryX=0.5;entryY=0;entryDx=0;entryDy=0;" edge="1" parent="1" source="rMF9UJl8UGHNbneHGESr-171" target="rMF9UJl8UGHNbneHGESr-180">
          <mxGeometry relative="1" as="geometry">
            <Array as="points">
              <mxPoint x="365" y="630" />
              <mxPoint x="245" y="630" />
            </Array>
          </mxGeometry>
        </mxCell>
        <mxCell id="rMF9UJl8UGHNbneHGESr-171" value="음료 선택" style="html=1;align=center;verticalAlign=top;rounded=1;absoluteArcSize=1;arcSize=10;dashed=0;" vertex="1" parent="1">
          <mxGeometry x="295" y="130" width="140" height="40" as="geometry" />
        </mxCell>
        <mxCell id="rMF9UJl8UGHNbneHGESr-183" style="edgeStyle=orthogonalEdgeStyle;rounded=0;orthogonalLoop=1;jettySize=auto;html=1;entryX=1;entryY=0.5;entryDx=0;entryDy=0;" edge="1" parent="1" source="rMF9UJl8UGHNbneHGESr-172" target="rMF9UJl8UGHNbneHGESr-180">
          <mxGeometry relative="1" as="geometry">
            <Array as="points">
              <mxPoint x="550" y="735" />
            </Array>
          </mxGeometry>
        </mxCell>
        <mxCell id="rMF9UJl8UGHNbneHGESr-172" value="사이드 선택" style="html=1;align=center;verticalAlign=top;rounded=1;absoluteArcSize=1;arcSize=10;dashed=0;" vertex="1" parent="1">
          <mxGeometry x="480" y="130" width="140" height="40" as="geometry" />
        </mxCell>
        <mxCell id="rMF9UJl8UGHNbneHGESr-175" value="[음료 주문]" style="text;html=1;strokeColor=none;fillColor=none;align=center;verticalAlign=middle;whiteSpace=wrap;rounded=0;" vertex="1" parent="1">
          <mxGeometry x="332.5" y="-70" width="65" height="20" as="geometry" />
        </mxCell>
        <mxCell id="rMF9UJl8UGHNbneHGESr-178" value="[ 사이드 주문]" style="text;html=1;strokeColor=none;fillColor=none;align=center;verticalAlign=middle;whiteSpace=wrap;rounded=0;" vertex="1" parent="1">
          <mxGeometry x="510" y="-70" width="80" height="20" as="geometry" />
        </mxCell>
        <mxCell id="rMF9UJl8UGHNbneHGESr-180" value="" style="rhombus;" vertex="1" parent="1">
          <mxGeometry x="230" y="720" width="30" height="30" as="geometry" />
        </mxCell>
        <mxCell id="rMF9UJl8UGHNbneHGESr-208" value="" style="edgeStyle=orthogonalEdgeStyle;rounded=0;orthogonalLoop=1;jettySize=auto;html=1;" edge="1" parent="1" target="rMF9UJl8UGHNbneHGESr-211">
          <mxGeometry relative="1" as="geometry">
            <mxPoint x="245" y="750" as="sourcePoint" />
          </mxGeometry>
        </mxCell>
        <mxCell id="rMF9UJl8UGHNbneHGESr-210" value="" style="edgeStyle=orthogonalEdgeStyle;rounded=0;orthogonalLoop=1;jettySize=auto;html=1;" edge="1" parent="1" source="rMF9UJl8UGHNbneHGESr-211" target="rMF9UJl8UGHNbneHGESr-217">
          <mxGeometry relative="1" as="geometry" />
        </mxCell>
        <mxCell id="rMF9UJl8UGHNbneHGESr-233" style="edgeStyle=orthogonalEdgeStyle;rounded=0;orthogonalLoop=1;jettySize=auto;html=1;" edge="1" parent="1" source="rMF9UJl8UGHNbneHGESr-211">
          <mxGeometry relative="1" as="geometry">
            <mxPoint x="370" y="-170" as="targetPoint" />
            <Array as="points">
              <mxPoint x="650" y="820" />
              <mxPoint x="650" y="-170" />
            </Array>
          </mxGeometry>
        </mxCell>
        <mxCell id="rMF9UJl8UGHNbneHGESr-211" value="장바구니에 추가" style="html=1;align=center;verticalAlign=top;rounded=1;absoluteArcSize=1;arcSize=10;dashed=0;" vertex="1" parent="1">
          <mxGeometry x="175" y="800" width="140" height="40" as="geometry" />
        </mxCell>
        <mxCell id="rMF9UJl8UGHNbneHGESr-212" style="edgeStyle=orthogonalEdgeStyle;rounded=0;orthogonalLoop=1;jettySize=auto;html=1;entryX=0.5;entryY=0;entryDx=0;entryDy=0;" edge="1" parent="1" source="rMF9UJl8UGHNbneHGESr-217" target="rMF9UJl8UGHNbneHGESr-221">
          <mxGeometry relative="1" as="geometry">
            <mxPoint x="50" y="895" as="targetPoint" />
          </mxGeometry>
        </mxCell>
        <mxCell id="rMF9UJl8UGHNbneHGESr-213" style="edgeStyle=orthogonalEdgeStyle;rounded=0;orthogonalLoop=1;jettySize=auto;html=1;exitX=0;exitY=1;exitDx=0;exitDy=0;entryX=0.5;entryY=0;entryDx=0;entryDy=0;" edge="1" parent="1" source="rMF9UJl8UGHNbneHGESr-217" target="rMF9UJl8UGHNbneHGESr-219">
          <mxGeometry relative="1" as="geometry">
            <mxPoint x="140" y="1000" as="targetPoint" />
            <Array as="points">
              <mxPoint x="110" y="903" />
            </Array>
          </mxGeometry>
        </mxCell>
        <mxCell id="rMF9UJl8UGHNbneHGESr-214" style="edgeStyle=orthogonalEdgeStyle;rounded=0;orthogonalLoop=1;jettySize=auto;html=1;entryX=0.5;entryY=0;entryDx=0;entryDy=0;" edge="1" parent="1" source="rMF9UJl8UGHNbneHGESr-217" target="rMF9UJl8UGHNbneHGESr-227">
          <mxGeometry relative="1" as="geometry">
            <mxPoint x="245" y="1090" as="targetPoint" />
          </mxGeometry>
        </mxCell>
        <mxCell id="rMF9UJl8UGHNbneHGESr-215" style="edgeStyle=orthogonalEdgeStyle;rounded=0;orthogonalLoop=1;jettySize=auto;html=1;exitX=1;exitY=0.5;exitDx=0;exitDy=0;entryX=0.557;entryY=-0.1;entryDx=0;entryDy=0;entryPerimeter=0;" edge="1" parent="1" source="rMF9UJl8UGHNbneHGESr-217" target="rMF9UJl8UGHNbneHGESr-225">
          <mxGeometry relative="1" as="geometry" />
        </mxCell>
        <mxCell id="rMF9UJl8UGHNbneHGESr-216" style="edgeStyle=orthogonalEdgeStyle;rounded=0;orthogonalLoop=1;jettySize=auto;html=1;exitX=1;exitY=1;exitDx=0;exitDy=0;entryX=0.557;entryY=-0.075;entryDx=0;entryDy=0;entryPerimeter=0;" edge="1" parent="1" source="rMF9UJl8UGHNbneHGESr-217" target="rMF9UJl8UGHNbneHGESr-223">
          <mxGeometry relative="1" as="geometry" />
        </mxCell>
        <mxCell id="rMF9UJl8UGHNbneHGESr-217" value="" style="rhombus;" vertex="1" parent="1">
          <mxGeometry x="230" y="880" width="30" height="30" as="geometry" />
        </mxCell>
        <mxCell id="rMF9UJl8UGHNbneHGESr-218" style="edgeStyle=orthogonalEdgeStyle;rounded=0;orthogonalLoop=1;jettySize=auto;html=1;entryX=0;entryY=0;entryDx=0;entryDy=0;" edge="1" parent="1" source="rMF9UJl8UGHNbneHGESr-219" target="rMF9UJl8UGHNbneHGESr-227">
          <mxGeometry relative="1" as="geometry">
            <Array as="points">
              <mxPoint x="110" y="1138" />
            </Array>
          </mxGeometry>
        </mxCell>
        <mxCell id="rMF9UJl8UGHNbneHGESr-219" value="수량을 감소" style="html=1;align=center;verticalAlign=top;rounded=1;absoluteArcSize=1;arcSize=10;dashed=0;" vertex="1" parent="1">
          <mxGeometry x="40" y="1010" width="140" height="40" as="geometry" />
        </mxCell>
        <mxCell id="rMF9UJl8UGHNbneHGESr-220" style="edgeStyle=orthogonalEdgeStyle;rounded=0;orthogonalLoop=1;jettySize=auto;html=1;exitX=0.5;exitY=1;exitDx=0;exitDy=0;entryX=0;entryY=0.5;entryDx=0;entryDy=0;" edge="1" parent="1" source="rMF9UJl8UGHNbneHGESr-221" target="rMF9UJl8UGHNbneHGESr-227">
          <mxGeometry relative="1" as="geometry" />
        </mxCell>
        <mxCell id="rMF9UJl8UGHNbneHGESr-221" value="수량을 증가" style="html=1;align=center;verticalAlign=top;rounded=1;absoluteArcSize=1;arcSize=10;dashed=0;" vertex="1" parent="1">
          <mxGeometry x="-130" y="1010" width="140" height="40" as="geometry" />
        </mxCell>
        <mxCell id="rMF9UJl8UGHNbneHGESr-222" style="edgeStyle=orthogonalEdgeStyle;rounded=0;orthogonalLoop=1;jettySize=auto;html=1;exitX=0.5;exitY=1;exitDx=0;exitDy=0;entryX=1;entryY=0;entryDx=0;entryDy=0;" edge="1" parent="1" source="rMF9UJl8UGHNbneHGESr-223" target="rMF9UJl8UGHNbneHGESr-227">
          <mxGeometry relative="1" as="geometry">
            <Array as="points">
              <mxPoint x="385" y="1138" />
            </Array>
          </mxGeometry>
        </mxCell>
        <mxCell id="rMF9UJl8UGHNbneHGESr-223" value="장바구니에서 삭제" style="html=1;align=center;verticalAlign=top;rounded=1;absoluteArcSize=1;arcSize=10;dashed=0;" vertex="1" parent="1">
          <mxGeometry x="315" y="1010" width="140" height="40" as="geometry" />
        </mxCell>
        <mxCell id="rMF9UJl8UGHNbneHGESr-263" style="edgeStyle=orthogonalEdgeStyle;rounded=0;orthogonalLoop=1;jettySize=auto;html=1;" edge="1" parent="1" source="rMF9UJl8UGHNbneHGESr-225">
          <mxGeometry relative="1" as="geometry">
            <mxPoint x="370" y="-140" as="targetPoint" />
            <Array as="points">
              <mxPoint x="690" y="1030" />
              <mxPoint x="690" y="-140" />
            </Array>
          </mxGeometry>
        </mxCell>
        <mxCell id="rMF9UJl8UGHNbneHGESr-225" value="주문 취소" style="html=1;align=center;verticalAlign=top;rounded=1;absoluteArcSize=1;arcSize=10;dashed=0;" vertex="1" parent="1">
          <mxGeometry x="510" y="1010" width="140" height="40" as="geometry" />
        </mxCell>
        <mxCell id="rMF9UJl8UGHNbneHGESr-226" style="edgeStyle=orthogonalEdgeStyle;rounded=0;orthogonalLoop=1;jettySize=auto;html=1;exitX=0.5;exitY=1;exitDx=0;exitDy=0;entryX=0.5;entryY=0;entryDx=0;entryDy=0;" edge="1" parent="1" source="rMF9UJl8UGHNbneHGESr-227" target="rMF9UJl8UGHNbneHGESr-260">
          <mxGeometry relative="1" as="geometry">
            <mxPoint x="245" y="1280" as="targetPoint" />
          </mxGeometry>
        </mxCell>
        <mxCell id="rMF9UJl8UGHNbneHGESr-227" value="" style="rhombus;" vertex="1" parent="1">
          <mxGeometry x="230" y="1130" width="30" height="30" as="geometry" />
        </mxCell>
        <mxCell id="rMF9UJl8UGHNbneHGESr-229" value="" style="endArrow=classic;html=1;" edge="1" parent="1">
          <mxGeometry width="50" height="50" relative="1" as="geometry">
            <mxPoint x="240" y="1200" as="sourcePoint" />
            <mxPoint x="240" y="860" as="targetPoint" />
            <Array as="points">
              <mxPoint x="-160" y="1200" />
              <mxPoint x="-160" y="860" />
            </Array>
          </mxGeometry>
        </mxCell>
        <mxCell id="rMF9UJl8UGHNbneHGESr-230" value="&lt;b&gt;[ 추가 조작 ]&lt;/b&gt;" style="text;html=1;strokeColor=none;fillColor=none;align=center;verticalAlign=middle;whiteSpace=wrap;rounded=0;" vertex="1" parent="1">
          <mxGeometry x="100" y="1175" width="100" height="20" as="geometry" />
        </mxCell>
        <mxCell id="rMF9UJl8UGHNbneHGESr-231" value="&lt;b&gt;[ 조작 끝 ]&lt;/b&gt;" style="text;html=1;strokeColor=none;fillColor=none;align=center;verticalAlign=middle;whiteSpace=wrap;rounded=0;" vertex="1" parent="1">
          <mxGeometry x="210" y="1230" width="70" height="20" as="geometry" />
        </mxCell>
        <mxCell id="rMF9UJl8UGHNbneHGESr-234" value="[ 추가 주문 ]" style="text;html=1;strokeColor=none;fillColor=none;align=center;verticalAlign=middle;whiteSpace=wrap;rounded=0;" vertex="1" parent="1">
          <mxGeometry x="339" y="790" width="75" height="20" as="geometry" />
        </mxCell>
        <mxCell id="rMF9UJl8UGHNbneHGESr-236" value="[ 수량 증가 ]" style="text;html=1;strokeColor=none;fillColor=none;align=center;verticalAlign=middle;whiteSpace=wrap;rounded=0;" vertex="1" parent="1">
          <mxGeometry x="-95" y="870" width="70" height="20" as="geometry" />
        </mxCell>
        <mxCell id="rMF9UJl8UGHNbneHGESr-237" value="[수량 감소]" style="text;html=1;strokeColor=none;fillColor=none;align=center;verticalAlign=middle;whiteSpace=wrap;rounded=0;" vertex="1" parent="1">
          <mxGeometry x="40" y="930" width="70" height="20" as="geometry" />
        </mxCell>
        <mxCell id="rMF9UJl8UGHNbneHGESr-238" value="[삭제]" style="text;html=1;strokeColor=none;fillColor=none;align=center;verticalAlign=middle;whiteSpace=wrap;rounded=0;" vertex="1" parent="1">
          <mxGeometry x="350" y="920" width="40" height="20" as="geometry" />
        </mxCell>
        <mxCell id="rMF9UJl8UGHNbneHGESr-239" value="[주문 취소]" style="text;html=1;strokeColor=none;fillColor=none;align=center;verticalAlign=middle;whiteSpace=wrap;rounded=0;" vertex="1" parent="1">
          <mxGeometry x="520" y="870" width="60" height="20" as="geometry" />
        </mxCell>
        <mxCell id="rMF9UJl8UGHNbneHGESr-241" value="" style="endArrow=classic;html=1;" edge="1" parent="1">
          <mxGeometry width="50" height="50" relative="1" as="geometry">
            <mxPoint x="243.5" y="1380" as="sourcePoint" />
            <mxPoint x="243.5" y="1440" as="targetPoint" />
          </mxGeometry>
        </mxCell>
        <mxCell id="rMF9UJl8UGHNbneHGESr-242" value="결제수단 선택" style="rounded=1;whiteSpace=wrap;html=1;" vertex="1" parent="1">
          <mxGeometry x="184" y="1440" width="120" height="60" as="geometry" />
        </mxCell>
        <mxCell id="rMF9UJl8UGHNbneHGESr-243" value="" style="endArrow=classic;html=1;" edge="1" parent="1">
          <mxGeometry width="50" height="50" relative="1" as="geometry">
            <mxPoint x="243.5" y="1500" as="sourcePoint" />
            <mxPoint x="243.5" y="1560" as="targetPoint" />
          </mxGeometry>
        </mxCell>
        <mxCell id="rMF9UJl8UGHNbneHGESr-244" value="결제" style="rounded=1;whiteSpace=wrap;html=1;" vertex="1" parent="1">
          <mxGeometry x="184" y="1560" width="120" height="60" as="geometry" />
        </mxCell>
        <mxCell id="rMF9UJl8UGHNbneHGESr-245" value="" style="endArrow=classic;html=1;" edge="1" parent="1">
          <mxGeometry width="50" height="50" relative="1" as="geometry">
            <mxPoint x="243.5" y="1620" as="sourcePoint" />
            <mxPoint x="243.5" y="1680" as="targetPoint" />
          </mxGeometry>
        </mxCell>
        <mxCell id="rMF9UJl8UGHNbneHGESr-246" value="" style="rhombus;whiteSpace=wrap;html=1;" vertex="1" parent="1">
          <mxGeometry x="213.5" y="1680" width="61" height="60" as="geometry" />
        </mxCell>
        <mxCell id="rMF9UJl8UGHNbneHGESr-247" value="" style="endArrow=classic;html=1;" edge="1" parent="1">
          <mxGeometry width="50" height="50" relative="1" as="geometry">
            <mxPoint x="274.5" y="1710" as="sourcePoint" />
            <mxPoint x="245" y="1400" as="targetPoint" />
            <Array as="points">
              <mxPoint x="385" y="1710" />
              <mxPoint x="385" y="1400" />
            </Array>
          </mxGeometry>
        </mxCell>
        <mxCell id="rMF9UJl8UGHNbneHGESr-248" value="" style="endArrow=classic;html=1;" edge="1" parent="1">
          <mxGeometry width="50" height="50" relative="1" as="geometry">
            <mxPoint x="243.5" y="1740" as="sourcePoint" />
            <mxPoint x="243.5" y="1800" as="targetPoint" />
          </mxGeometry>
        </mxCell>
        <mxCell id="rMF9UJl8UGHNbneHGESr-249" value="" style="rhombus;whiteSpace=wrap;html=1;" vertex="1" parent="1">
          <mxGeometry x="213.5" y="1800" width="61" height="60" as="geometry" />
        </mxCell>
        <mxCell id="rMF9UJl8UGHNbneHGESr-250" value="" style="endArrow=classic;html=1;" edge="1" parent="1">
          <mxGeometry width="50" height="50" relative="1" as="geometry">
            <mxPoint x="243.5" y="1860" as="sourcePoint" />
            <mxPoint x="243.5" y="1920" as="targetPoint" />
          </mxGeometry>
        </mxCell>
        <mxCell id="rMF9UJl8UGHNbneHGESr-251" value="" style="endArrow=classic;html=1;" edge="1" parent="1">
          <mxGeometry width="50" height="50" relative="1" as="geometry">
            <mxPoint x="274.5" y="1830" as="sourcePoint" />
            <mxPoint x="335" y="1830" as="targetPoint" />
          </mxGeometry>
        </mxCell>
        <mxCell id="rMF9UJl8UGHNbneHGESr-252" value="잔돈 반환" style="rounded=1;whiteSpace=wrap;html=1;" vertex="1" parent="1">
          <mxGeometry x="335" y="1800" width="120" height="60" as="geometry" />
        </mxCell>
        <mxCell id="rMF9UJl8UGHNbneHGESr-253" value="" style="rhombus;whiteSpace=wrap;html=1;" vertex="1" parent="1">
          <mxGeometry x="213.5" y="1920" width="61" height="60" as="geometry" />
        </mxCell>
        <mxCell id="rMF9UJl8UGHNbneHGESr-254" value="" style="endArrow=classic;html=1;entryX=1;entryY=0.5;entryDx=0;entryDy=0;" edge="1" parent="1" target="rMF9UJl8UGHNbneHGESr-253">
          <mxGeometry width="50" height="50" relative="1" as="geometry">
            <mxPoint x="395" y="1860" as="sourcePoint" />
            <mxPoint x="445" y="1810" as="targetPoint" />
            <Array as="points">
              <mxPoint x="395" y="1950" />
            </Array>
          </mxGeometry>
        </mxCell>
        <mxCell id="rMF9UJl8UGHNbneHGESr-255" value="" style="endArrow=classic;html=1;entryX=0;entryY=0.5;entryDx=0;entryDy=0;" edge="1" parent="1" target="rMF9UJl8UGHNbneHGESr-325">
          <mxGeometry width="50" height="50" relative="1" as="geometry">
            <mxPoint x="245" y="1980" as="sourcePoint" />
            <mxPoint x="245" y="2040" as="targetPoint" />
            <Array as="points">
              <mxPoint x="245" y="2055" />
            </Array>
          </mxGeometry>
        </mxCell>
        <mxCell id="rMF9UJl8UGHNbneHGESr-257" value="[거부]" style="text;html=1;strokeColor=none;fillColor=none;align=center;verticalAlign=middle;whiteSpace=wrap;rounded=0;" vertex="1" parent="1">
          <mxGeometry x="304" y="1680" width="40" height="20" as="geometry" />
        </mxCell>
        <mxCell id="rMF9UJl8UGHNbneHGESr-258" value="[승인]" style="text;html=1;strokeColor=none;fillColor=none;align=center;verticalAlign=middle;whiteSpace=wrap;rounded=0;" vertex="1" parent="1">
          <mxGeometry x="255" y="1750" width="40" height="20" as="geometry" />
        </mxCell>
        <mxCell id="rMF9UJl8UGHNbneHGESr-259" value="[잔돈]" style="text;html=1;strokeColor=none;fillColor=none;align=center;verticalAlign=middle;whiteSpace=wrap;rounded=0;" vertex="1" parent="1">
          <mxGeometry x="275" y="1840" width="40" height="20" as="geometry" />
        </mxCell>
        <mxCell id="rMF9UJl8UGHNbneHGESr-260" value="주문 내역 출력" style="rounded=1;whiteSpace=wrap;html=1;" vertex="1" parent="1">
          <mxGeometry x="184" y="1320" width="120" height="60" as="geometry" />
        </mxCell>
        <mxCell id="rMF9UJl8UGHNbneHGESr-266" style="edgeStyle=orthogonalEdgeStyle;rounded=0;orthogonalLoop=1;jettySize=auto;html=1;entryX=0.5;entryY=0;entryDx=0;entryDy=0;" edge="1" parent="1" source="rMF9UJl8UGHNbneHGESr-267" target="rMF9UJl8UGHNbneHGESr-272">
          <mxGeometry relative="1" as="geometry" />
        </mxCell>
        <mxCell id="rMF9UJl8UGHNbneHGESr-267" value="ID PW 입력" style="html=1;align=center;verticalAlign=top;rounded=1;absoluteArcSize=1;arcSize=10;dashed=0;" vertex="1" parent="1">
          <mxGeometry x="1035" y="-80" width="140" height="40" as="geometry" />
        </mxCell>
        <mxCell id="rMF9UJl8UGHNbneHGESr-309" style="edgeStyle=orthogonalEdgeStyle;rounded=0;orthogonalLoop=1;jettySize=auto;html=1;entryX=0.5;entryY=0;entryDx=0;entryDy=0;" edge="1" parent="1" source="rMF9UJl8UGHNbneHGESr-269" target="rMF9UJl8UGHNbneHGESr-310">
          <mxGeometry relative="1" as="geometry">
            <mxPoint x="1105" y="190" as="targetPoint" />
          </mxGeometry>
        </mxCell>
        <mxCell id="rMF9UJl8UGHNbneHGESr-269" value="로그인 승인" style="html=1;align=center;verticalAlign=top;rounded=1;absoluteArcSize=1;arcSize=10;dashed=0;" vertex="1" parent="1">
          <mxGeometry x="1035" y="110" width="140" height="40" as="geometry" />
        </mxCell>
        <mxCell id="rMF9UJl8UGHNbneHGESr-270" style="edgeStyle=orthogonalEdgeStyle;rounded=0;orthogonalLoop=1;jettySize=auto;html=1;" edge="1" parent="1" source="rMF9UJl8UGHNbneHGESr-272">
          <mxGeometry relative="1" as="geometry">
            <mxPoint x="1105" y="-130" as="targetPoint" />
            <Array as="points">
              <mxPoint x="960" y="25" />
            </Array>
          </mxGeometry>
        </mxCell>
        <mxCell id="rMF9UJl8UGHNbneHGESr-271" style="edgeStyle=orthogonalEdgeStyle;rounded=0;orthogonalLoop=1;jettySize=auto;html=1;entryX=0.5;entryY=0;entryDx=0;entryDy=0;" edge="1" parent="1" source="rMF9UJl8UGHNbneHGESr-272" target="rMF9UJl8UGHNbneHGESr-269">
          <mxGeometry relative="1" as="geometry" />
        </mxCell>
        <mxCell id="rMF9UJl8UGHNbneHGESr-272" value="" style="rhombus;" vertex="1" parent="1">
          <mxGeometry x="1090" y="10" width="30" height="30" as="geometry" />
        </mxCell>
        <mxCell id="rMF9UJl8UGHNbneHGESr-273" value="&lt;b&gt;[ incorrect ]&lt;/b&gt;" style="text;html=1;strokeColor=none;fillColor=none;align=center;verticalAlign=middle;whiteSpace=wrap;rounded=0;" vertex="1" parent="1">
          <mxGeometry x="980" width="80" height="20" as="geometry" />
        </mxCell>
        <mxCell id="rMF9UJl8UGHNbneHGESr-274" value="&lt;b&gt;[ correct ]&lt;/b&gt;" style="text;html=1;strokeColor=none;fillColor=none;align=center;verticalAlign=middle;whiteSpace=wrap;rounded=0;" vertex="1" parent="1">
          <mxGeometry x="1077.5" y="60" width="62.5" height="20" as="geometry" />
        </mxCell>
        <mxCell id="rMF9UJl8UGHNbneHGESr-278" value="관리기능 선택" style="rounded=1;whiteSpace=wrap;html=1;" vertex="1" parent="1">
          <mxGeometry x="1063" y="300" width="97" height="50" as="geometry" />
        </mxCell>
        <mxCell id="rMF9UJl8UGHNbneHGESr-279" value="" style="rhombus;whiteSpace=wrap;html=1;" vertex="1" parent="1">
          <mxGeometry x="1078.5" y="390" width="59" height="60" as="geometry" />
        </mxCell>
        <mxCell id="rMF9UJl8UGHNbneHGESr-280" value="" style="endArrow=classic;html=1;" edge="1" parent="1">
          <mxGeometry width="50" height="50" relative="1" as="geometry">
            <mxPoint x="1107.8200000000002" y="350" as="sourcePoint" />
            <mxPoint x="1107.4099999999999" y="390" as="targetPoint" />
          </mxGeometry>
        </mxCell>
        <mxCell id="rMF9UJl8UGHNbneHGESr-281" value="" style="endArrow=classic;html=1;entryX=0.5;entryY=0;entryDx=0;entryDy=0;" edge="1" parent="1" target="rMF9UJl8UGHNbneHGESr-285">
          <mxGeometry width="50" height="50" relative="1" as="geometry">
            <mxPoint x="1137.5" y="420" as="sourcePoint" />
            <mxPoint x="1270" y="420" as="targetPoint" />
            <Array as="points">
              <mxPoint x="1298" y="420" />
            </Array>
          </mxGeometry>
        </mxCell>
        <mxCell id="rMF9UJl8UGHNbneHGESr-282" value="" style="endArrow=classic;html=1;" edge="1" parent="1">
          <mxGeometry width="50" height="50" relative="1" as="geometry">
            <mxPoint x="1107.8200000000002" y="450" as="sourcePoint" />
            <mxPoint x="1107.4099999999999" y="490" as="targetPoint" />
          </mxGeometry>
        </mxCell>
        <mxCell id="rMF9UJl8UGHNbneHGESr-283" value="" style="endArrow=classic;html=1;entryX=0.5;entryY=0;entryDx=0;entryDy=0;" edge="1" parent="1" target="rMF9UJl8UGHNbneHGESr-286">
          <mxGeometry width="50" height="50" relative="1" as="geometry">
            <mxPoint x="1078.5" y="419.4100000000001" as="sourcePoint" />
            <mxPoint x="946" y="419.40999999999997" as="targetPoint" />
            <Array as="points">
              <mxPoint x="918" y="419" />
            </Array>
          </mxGeometry>
        </mxCell>
        <mxCell id="rMF9UJl8UGHNbneHGESr-284" value="메뉴 선택" style="rounded=1;whiteSpace=wrap;html=1;" vertex="1" parent="1">
          <mxGeometry x="1059.5" y="490" width="97" height="50" as="geometry" />
        </mxCell>
        <mxCell id="rMF9UJl8UGHNbneHGESr-285" value="메뉴 선택" style="rounded=1;whiteSpace=wrap;html=1;" vertex="1" parent="1">
          <mxGeometry x="1250" y="490" width="97" height="50" as="geometry" />
        </mxCell>
        <mxCell id="rMF9UJl8UGHNbneHGESr-286" value="메뉴 정보 입력" style="rounded=1;whiteSpace=wrap;html=1;" vertex="1" parent="1">
          <mxGeometry x="870" y="490" width="97" height="50" as="geometry" />
        </mxCell>
        <mxCell id="rMF9UJl8UGHNbneHGESr-287" value="[메뉴 추가]" style="text;html=1;strokeColor=none;fillColor=none;align=center;verticalAlign=middle;whiteSpace=wrap;rounded=0;" vertex="1" parent="1">
          <mxGeometry x="950" y="390" width="70" height="20" as="geometry" />
        </mxCell>
        <mxCell id="rMF9UJl8UGHNbneHGESr-288" value="[메뉴 삭제]" style="text;html=1;strokeColor=none;fillColor=none;align=center;verticalAlign=middle;whiteSpace=wrap;rounded=0;" vertex="1" parent="1">
          <mxGeometry x="1190" y="390" width="70" height="20" as="geometry" />
        </mxCell>
        <mxCell id="rMF9UJl8UGHNbneHGESr-289" value="[메뉴 삭제]" style="text;html=1;strokeColor=none;fillColor=none;align=center;verticalAlign=middle;whiteSpace=wrap;rounded=0;" vertex="1" parent="1">
          <mxGeometry x="1124" y="450" width="70" height="20" as="geometry" />
        </mxCell>
        <mxCell id="rMF9UJl8UGHNbneHGESr-290" value="" style="endArrow=classic;html=1;" edge="1" parent="1">
          <mxGeometry width="50" height="50" relative="1" as="geometry">
            <mxPoint x="1107.8200000000002" y="540" as="sourcePoint" />
            <mxPoint x="1107.4099999999999" y="580" as="targetPoint" />
          </mxGeometry>
        </mxCell>
        <mxCell id="rMF9UJl8UGHNbneHGESr-291" value="메뉴 삭제" style="rounded=1;whiteSpace=wrap;html=1;" vertex="1" parent="1">
          <mxGeometry x="1059.5" y="580" width="97" height="50" as="geometry" />
        </mxCell>
        <mxCell id="rMF9UJl8UGHNbneHGESr-292" value="" style="edgeStyle=orthogonalEdgeStyle;rounded=0;orthogonalLoop=1;jettySize=auto;html=1;" edge="1" parent="1" source="rMF9UJl8UGHNbneHGESr-293" target="rMF9UJl8UGHNbneHGESr-295">
          <mxGeometry relative="1" as="geometry" />
        </mxCell>
        <mxCell id="rMF9UJl8UGHNbneHGESr-293" value="수정 내용 입력" style="rounded=1;whiteSpace=wrap;html=1;" vertex="1" parent="1">
          <mxGeometry x="1250" y="580" width="97" height="50" as="geometry" />
        </mxCell>
        <mxCell id="rMF9UJl8UGHNbneHGESr-294" value="" style="endArrow=classic;html=1;" edge="1" parent="1">
          <mxGeometry width="50" height="50" relative="1" as="geometry">
            <mxPoint x="1298.3200000000002" y="540" as="sourcePoint" />
            <mxPoint x="1297.9099999999999" y="580" as="targetPoint" />
          </mxGeometry>
        </mxCell>
        <mxCell id="rMF9UJl8UGHNbneHGESr-295" value="메뉴 수정" style="rounded=1;whiteSpace=wrap;html=1;" vertex="1" parent="1">
          <mxGeometry x="1250" y="670" width="97" height="50" as="geometry" />
        </mxCell>
        <mxCell id="rMF9UJl8UGHNbneHGESr-296" value="" style="endArrow=classic;html=1;" edge="1" parent="1">
          <mxGeometry width="50" height="50" relative="1" as="geometry">
            <mxPoint x="1298.3200000000002" y="630" as="sourcePoint" />
            <mxPoint x="1297.9099999999999" y="670" as="targetPoint" />
          </mxGeometry>
        </mxCell>
        <mxCell id="rMF9UJl8UGHNbneHGESr-297" value="메뉴 추가" style="rounded=1;whiteSpace=wrap;html=1;" vertex="1" parent="1">
          <mxGeometry x="870" y="670" width="97" height="50" as="geometry" />
        </mxCell>
        <mxCell id="rMF9UJl8UGHNbneHGESr-298" value="" style="endArrow=classic;html=1;" edge="1" parent="1">
          <mxGeometry width="50" height="50" relative="1" as="geometry">
            <mxPoint x="918.3200000000002" y="540" as="sourcePoint" />
            <mxPoint x="917.9099999999999" y="580" as="targetPoint" />
          </mxGeometry>
        </mxCell>
        <mxCell id="rMF9UJl8UGHNbneHGESr-299" value="" style="rhombus;whiteSpace=wrap;html=1;" vertex="1" parent="1">
          <mxGeometry x="1082" y="750" width="59" height="60" as="geometry" />
        </mxCell>
        <mxCell id="rMF9UJl8UGHNbneHGESr-300" value="" style="endArrow=classic;html=1;entryX=0;entryY=0.5;entryDx=0;entryDy=0;exitX=0.5;exitY=1;exitDx=0;exitDy=0;" edge="1" parent="1" source="rMF9UJl8UGHNbneHGESr-297" target="rMF9UJl8UGHNbneHGESr-299">
          <mxGeometry width="50" height="50" relative="1" as="geometry">
            <mxPoint x="917" y="730" as="sourcePoint" />
            <mxPoint x="967" y="580" as="targetPoint" />
            <Array as="points">
              <mxPoint x="917" y="780" />
            </Array>
          </mxGeometry>
        </mxCell>
        <mxCell id="rMF9UJl8UGHNbneHGESr-301" value="" style="endArrow=classic;html=1;entryX=1;entryY=0.5;entryDx=0;entryDy=0;" edge="1" parent="1" target="rMF9UJl8UGHNbneHGESr-299">
          <mxGeometry width="50" height="50" relative="1" as="geometry">
            <mxPoint x="1297" y="720" as="sourcePoint" />
            <mxPoint x="1347" y="670" as="targetPoint" />
            <Array as="points">
              <mxPoint x="1297" y="780" />
            </Array>
          </mxGeometry>
        </mxCell>
        <mxCell id="rMF9UJl8UGHNbneHGESr-302" value="" style="endArrow=classic;html=1;entryX=0.5;entryY=0;entryDx=0;entryDy=0;" edge="1" parent="1" target="rMF9UJl8UGHNbneHGESr-299">
          <mxGeometry width="50" height="50" relative="1" as="geometry">
            <mxPoint x="1110" y="630" as="sourcePoint" />
            <mxPoint x="1160" y="580" as="targetPoint" />
          </mxGeometry>
        </mxCell>
        <mxCell id="rMF9UJl8UGHNbneHGESr-303" value="" style="endArrow=classic;html=1;entryX=0.5;entryY=0;entryDx=0;entryDy=0;" edge="1" parent="1" target="rMF9UJl8UGHNbneHGESr-324">
          <mxGeometry width="50" height="50" relative="1" as="geometry">
            <mxPoint x="1111.3200000000002" y="810" as="sourcePoint" />
            <mxPoint x="1110.9099999999999" y="850" as="targetPoint" />
          </mxGeometry>
        </mxCell>
        <mxCell id="rMF9UJl8UGHNbneHGESr-305" value="" style="rhombus;whiteSpace=wrap;html=1;" vertex="1" parent="1">
          <mxGeometry x="889" y="580" width="59" height="60" as="geometry" />
        </mxCell>
        <mxCell id="rMF9UJl8UGHNbneHGESr-306" value="" style="endArrow=classic;html=1;" edge="1" parent="1">
          <mxGeometry width="50" height="50" relative="1" as="geometry">
            <mxPoint x="918.3200000000002" y="640" as="sourcePoint" />
            <mxPoint x="918" y="670" as="targetPoint" />
          </mxGeometry>
        </mxCell>
        <mxCell id="rMF9UJl8UGHNbneHGESr-307" value="" style="endArrow=classic;html=1;" edge="1" parent="1">
          <mxGeometry width="50" height="50" relative="1" as="geometry">
            <mxPoint x="889" y="610" as="sourcePoint" />
            <mxPoint x="920" y="460" as="targetPoint" />
            <Array as="points">
              <mxPoint x="810" y="610" />
              <mxPoint x="810" y="460" />
            </Array>
          </mxGeometry>
        </mxCell>
        <mxCell id="rMF9UJl8UGHNbneHGESr-308" value="[미입력]" style="text;html=1;strokeColor=none;fillColor=none;align=center;verticalAlign=middle;whiteSpace=wrap;rounded=0;" vertex="1" parent="1">
          <mxGeometry x="819" y="620" width="70" height="20" as="geometry" />
        </mxCell>
        <mxCell id="rMF9UJl8UGHNbneHGESr-312" style="edgeStyle=orthogonalEdgeStyle;rounded=0;orthogonalLoop=1;jettySize=auto;html=1;entryX=0.433;entryY=0.02;entryDx=0;entryDy=0;entryPerimeter=0;" edge="1" parent="1" source="rMF9UJl8UGHNbneHGESr-310" target="rMF9UJl8UGHNbneHGESr-278">
          <mxGeometry relative="1" as="geometry" />
        </mxCell>
        <mxCell id="rMF9UJl8UGHNbneHGESr-314" style="edgeStyle=orthogonalEdgeStyle;rounded=0;orthogonalLoop=1;jettySize=auto;html=1;entryX=0.5;entryY=0;entryDx=0;entryDy=0;" edge="1" parent="1" source="rMF9UJl8UGHNbneHGESr-310" target="rMF9UJl8UGHNbneHGESr-318">
          <mxGeometry relative="1" as="geometry">
            <mxPoint x="1670" y="235" as="targetPoint" />
          </mxGeometry>
        </mxCell>
        <mxCell id="rMF9UJl8UGHNbneHGESr-310" value="" style="rhombus;" vertex="1" parent="1">
          <mxGeometry x="1090" y="220" width="30" height="30" as="geometry" />
        </mxCell>
        <mxCell id="rMF9UJl8UGHNbneHGESr-313" value="[메뉴 관리]" style="text;html=1;strokeColor=none;fillColor=none;align=center;verticalAlign=middle;whiteSpace=wrap;rounded=0;" vertex="1" parent="1">
          <mxGeometry x="1026" y="260" width="70" height="20" as="geometry" />
        </mxCell>
        <mxCell id="rMF9UJl8UGHNbneHGESr-317" style="edgeStyle=orthogonalEdgeStyle;rounded=0;orthogonalLoop=1;jettySize=auto;html=1;entryX=0.5;entryY=0;entryDx=0;entryDy=0;" edge="1" parent="1" source="rMF9UJl8UGHNbneHGESr-318" target="rMF9UJl8UGHNbneHGESr-320">
          <mxGeometry relative="1" as="geometry" />
        </mxCell>
        <mxCell id="rMF9UJl8UGHNbneHGESr-318" value="매출 현황 요청" style="html=1;align=center;verticalAlign=top;rounded=1;absoluteArcSize=1;arcSize=10;dashed=0;" vertex="1" parent="1">
          <mxGeometry x="1480" y="380" width="140" height="40" as="geometry" />
        </mxCell>
        <mxCell id="rMF9UJl8UGHNbneHGESr-319" style="edgeStyle=orthogonalEdgeStyle;rounded=0;orthogonalLoop=1;jettySize=auto;html=1;entryX=1;entryY=0.5;entryDx=0;entryDy=0;" edge="1" parent="1" source="rMF9UJl8UGHNbneHGESr-320" target="rMF9UJl8UGHNbneHGESr-324">
          <mxGeometry relative="1" as="geometry">
            <mxPoint x="1550" y="580" as="targetPoint" />
            <Array as="points">
              <mxPoint x="1550" y="938" />
            </Array>
          </mxGeometry>
        </mxCell>
        <mxCell id="rMF9UJl8UGHNbneHGESr-320" value="매출 현황 출력" style="html=1;align=center;verticalAlign=top;rounded=1;absoluteArcSize=1;arcSize=10;dashed=0;" vertex="1" parent="1">
          <mxGeometry x="1480" y="470" width="140" height="40" as="geometry" />
        </mxCell>
        <mxCell id="rMF9UJl8UGHNbneHGESr-322" value="[매출 현황 보기]" style="text;html=1;strokeColor=none;fillColor=none;align=center;verticalAlign=middle;whiteSpace=wrap;rounded=0;" vertex="1" parent="1">
          <mxGeometry x="1220" y="210" width="100" height="20" as="geometry" />
        </mxCell>
        <mxCell id="rMF9UJl8UGHNbneHGESr-326" style="edgeStyle=orthogonalEdgeStyle;rounded=0;orthogonalLoop=1;jettySize=auto;html=1;entryX=1;entryY=0.5;entryDx=0;entryDy=0;" edge="1" parent="1" source="rMF9UJl8UGHNbneHGESr-324" target="rMF9UJl8UGHNbneHGESr-325">
          <mxGeometry relative="1" as="geometry">
            <Array as="points">
              <mxPoint x="1112" y="2055" />
            </Array>
          </mxGeometry>
        </mxCell>
        <mxCell id="rMF9UJl8UGHNbneHGESr-324" value="" style="rhombus;" vertex="1" parent="1">
          <mxGeometry x="1082" y="910" width="60" height="55" as="geometry" />
        </mxCell>
        <mxCell id="rMF9UJl8UGHNbneHGESr-328" style="edgeStyle=orthogonalEdgeStyle;rounded=0;orthogonalLoop=1;jettySize=auto;html=1;entryX=0.5;entryY=0;entryDx=0;entryDy=0;" edge="1" parent="1" source="rMF9UJl8UGHNbneHGESr-325" target="rMF9UJl8UGHNbneHGESr-327">
          <mxGeometry relative="1" as="geometry" />
        </mxCell>
        <mxCell id="rMF9UJl8UGHNbneHGESr-325" value="" style="rhombus;" vertex="1" parent="1">
          <mxGeometry x="710" y="2030" width="50" height="50" as="geometry" />
        </mxCell>
        <mxCell id="rMF9UJl8UGHNbneHGESr-327" value="" style="ellipse;html=1;shape=endState;fillColor=#000000;strokeColor=#ff0000;" vertex="1" parent="1">
          <mxGeometry x="710" y="2140" width="50" height="50" as="geometry" />
        </mxCell>
      </root>
    </mxGraphModel>
  </diagram>
</mxfile>
